<mxfile host="Electron" modified="2023-04-01T01:04:43.158Z" agent="Mozilla/5.0 (Windows NT 10.0; Win64; x64) AppleWebKit/537.36 (KHTML, like Gecko) draw.io/21.1.2 Chrome/106.0.5249.199 Electron/21.4.3 Safari/537.36" etag="F0FYFQTO3_A62B5MvDAF" version="21.1.2" type="device">
  <diagram id="33EOHbBXcNmQ16xaQVXP" name="Page-2">
    <mxGraphModel dx="1191" dy="574" grid="0" gridSize="10" guides="1" tooltips="1" connect="1" arrows="1" fold="1" page="1" pageScale="1" pageWidth="1200" pageHeight="1600" background="none" math="1" shadow="0">
      <root>
        <mxCell id="0" />
        <mxCell id="1" parent="0" />
        <mxCell id="VRkNWiCjbg5eOUHFSivB-15" value="" style="edgeStyle=orthogonalEdgeStyle;rounded=0;orthogonalLoop=1;jettySize=auto;html=1;" edge="1" parent="1" source="VRkNWiCjbg5eOUHFSivB-4" target="VRkNWiCjbg5eOUHFSivB-14">
          <mxGeometry relative="1" as="geometry" />
        </mxCell>
        <mxCell id="VRkNWiCjbg5eOUHFSivB-4" value="Análise do problema e dos dados" style="rounded=1;whiteSpace=wrap;html=1;absoluteArcSize=1;arcSize=14;strokeWidth=2;" vertex="1" parent="1">
          <mxGeometry x="262" y="118" width="100" height="100" as="geometry" />
        </mxCell>
        <mxCell id="VRkNWiCjbg5eOUHFSivB-13" value="" style="edgeStyle=orthogonalEdgeStyle;rounded=0;orthogonalLoop=1;jettySize=auto;html=1;" edge="1" parent="1" source="VRkNWiCjbg5eOUHFSivB-6" target="VRkNWiCjbg5eOUHFSivB-4">
          <mxGeometry relative="1" as="geometry" />
        </mxCell>
        <mxCell id="VRkNWiCjbg5eOUHFSivB-6" value="Problema" style="text;html=1;strokeColor=none;fillColor=none;align=center;verticalAlign=middle;whiteSpace=wrap;rounded=1;" vertex="1" parent="1">
          <mxGeometry x="282" y="31" width="60" height="30" as="geometry" />
        </mxCell>
        <mxCell id="VRkNWiCjbg5eOUHFSivB-28" value="" style="edgeStyle=orthogonalEdgeStyle;rounded=0;orthogonalLoop=1;jettySize=auto;html=1;" edge="1" parent="1" source="VRkNWiCjbg5eOUHFSivB-14" target="VRkNWiCjbg5eOUHFSivB-27">
          <mxGeometry relative="1" as="geometry" />
        </mxCell>
        <mxCell id="VRkNWiCjbg5eOUHFSivB-14" value="Limpeza e transformação dos dados" style="rounded=1;whiteSpace=wrap;html=1;absoluteArcSize=1;arcSize=14;strokeWidth=2;" vertex="1" parent="1">
          <mxGeometry x="442" y="118" width="100" height="100" as="geometry" />
        </mxCell>
        <mxCell id="VRkNWiCjbg5eOUHFSivB-33" style="edgeStyle=orthogonalEdgeStyle;rounded=0;orthogonalLoop=1;jettySize=auto;html=1;entryX=0;entryY=0.5;entryDx=0;entryDy=0;" edge="1" parent="1" source="VRkNWiCjbg5eOUHFSivB-17" target="VRkNWiCjbg5eOUHFSivB-19">
          <mxGeometry relative="1" as="geometry" />
        </mxCell>
        <mxCell id="VRkNWiCjbg5eOUHFSivB-17" value="Selecionar e treinar modelos" style="rounded=1;whiteSpace=wrap;html=1;absoluteArcSize=1;arcSize=14;strokeWidth=2;" vertex="1" parent="1">
          <mxGeometry x="622" y="118" width="100" height="100" as="geometry" />
        </mxCell>
        <mxCell id="VRkNWiCjbg5eOUHFSivB-34" style="edgeStyle=orthogonalEdgeStyle;rounded=0;orthogonalLoop=1;jettySize=auto;html=1;entryX=0.5;entryY=0;entryDx=0;entryDy=0;startArrow=classic;startFill=1;" edge="1" parent="1" source="VRkNWiCjbg5eOUHFSivB-19" target="VRkNWiCjbg5eOUHFSivB-21">
          <mxGeometry relative="1" as="geometry" />
        </mxCell>
        <mxCell id="VRkNWiCjbg5eOUHFSivB-40" value="" style="edgeStyle=orthogonalEdgeStyle;rounded=0;orthogonalLoop=1;jettySize=auto;html=1;" edge="1" parent="1" source="VRkNWiCjbg5eOUHFSivB-19" target="VRkNWiCjbg5eOUHFSivB-39">
          <mxGeometry relative="1" as="geometry" />
        </mxCell>
        <mxCell id="VRkNWiCjbg5eOUHFSivB-19" value="Avaliar e comparar modelos" style="rounded=1;whiteSpace=wrap;html=1;absoluteArcSize=1;arcSize=14;strokeWidth=2;" vertex="1" parent="1">
          <mxGeometry x="802" y="118" width="100" height="100" as="geometry" />
        </mxCell>
        <mxCell id="VRkNWiCjbg5eOUHFSivB-21" value="Ajustar e treinar modelos" style="rounded=1;whiteSpace=wrap;html=1;absoluteArcSize=1;arcSize=14;strokeWidth=2;" vertex="1" parent="1">
          <mxGeometry x="802" y="295" width="100" height="100" as="geometry" />
        </mxCell>
        <mxCell id="VRkNWiCjbg5eOUHFSivB-36" style="edgeStyle=orthogonalEdgeStyle;rounded=0;orthogonalLoop=1;jettySize=auto;html=1;entryX=0.5;entryY=1;entryDx=0;entryDy=0;" edge="1" parent="1" source="VRkNWiCjbg5eOUHFSivB-27" target="VRkNWiCjbg5eOUHFSivB-17">
          <mxGeometry relative="1" as="geometry" />
        </mxCell>
        <mxCell id="VRkNWiCjbg5eOUHFSivB-37" value="Amostra" style="edgeLabel;html=1;align=center;verticalAlign=middle;resizable=0;points=[];fontColor=#f0f0f0;" vertex="1" connectable="0" parent="VRkNWiCjbg5eOUHFSivB-36">
          <mxGeometry x="-0.6983" y="1" relative="1" as="geometry">
            <mxPoint x="-13" y="-11" as="offset" />
          </mxGeometry>
        </mxCell>
        <mxCell id="VRkNWiCjbg5eOUHFSivB-51" style="edgeStyle=orthogonalEdgeStyle;rounded=0;orthogonalLoop=1;jettySize=auto;html=1;entryX=0;entryY=0.5;entryDx=0;entryDy=0;" edge="1" parent="1" source="VRkNWiCjbg5eOUHFSivB-27" target="VRkNWiCjbg5eOUHFSivB-48">
          <mxGeometry relative="1" as="geometry">
            <Array as="points">
              <mxPoint x="492" y="544" />
            </Array>
          </mxGeometry>
        </mxCell>
        <mxCell id="VRkNWiCjbg5eOUHFSivB-52" value="Totalidade dos dados" style="edgeLabel;html=1;align=center;verticalAlign=middle;resizable=0;points=[];" vertex="1" connectable="0" parent="VRkNWiCjbg5eOUHFSivB-51">
          <mxGeometry x="-0.5899" y="-2" relative="1" as="geometry">
            <mxPoint x="60" y="4" as="offset" />
          </mxGeometry>
        </mxCell>
        <mxCell id="VRkNWiCjbg5eOUHFSivB-27" value="Fazer uma amostra dos dados*" style="rounded=1;whiteSpace=wrap;html=1;absoluteArcSize=1;arcSize=14;strokeWidth=2;" vertex="1" parent="1">
          <mxGeometry x="442" y="298" width="100" height="100" as="geometry" />
        </mxCell>
        <mxCell id="VRkNWiCjbg5eOUHFSivB-41" style="edgeStyle=orthogonalEdgeStyle;rounded=0;orthogonalLoop=1;jettySize=auto;html=1;entryX=0.5;entryY=0;entryDx=0;entryDy=0;curved=1;" edge="1" parent="1" source="VRkNWiCjbg5eOUHFSivB-39" target="VRkNWiCjbg5eOUHFSivB-17">
          <mxGeometry relative="1" as="geometry">
            <Array as="points">
              <mxPoint x="1023" y="38" />
              <mxPoint x="672" y="38" />
            </Array>
          </mxGeometry>
        </mxCell>
        <mxCell id="VRkNWiCjbg5eOUHFSivB-44" value="Não" style="edgeLabel;html=1;align=center;verticalAlign=middle;resizable=0;points=[];" vertex="1" connectable="0" parent="VRkNWiCjbg5eOUHFSivB-41">
          <mxGeometry x="-0.907" y="4" relative="1" as="geometry">
            <mxPoint y="1" as="offset" />
          </mxGeometry>
        </mxCell>
        <mxCell id="VRkNWiCjbg5eOUHFSivB-49" style="edgeStyle=orthogonalEdgeStyle;rounded=0;orthogonalLoop=1;jettySize=auto;html=1;" edge="1" parent="1" source="VRkNWiCjbg5eOUHFSivB-39" target="VRkNWiCjbg5eOUHFSivB-48">
          <mxGeometry relative="1" as="geometry" />
        </mxCell>
        <mxCell id="VRkNWiCjbg5eOUHFSivB-39" value="Atinje objetivo?" style="rhombus;whiteSpace=wrap;html=1;rounded=1;arcSize=14;strokeWidth=2;" vertex="1" parent="1">
          <mxGeometry x="972" y="118" width="101" height="101" as="geometry" />
        </mxCell>
        <mxCell id="VRkNWiCjbg5eOUHFSivB-48" value="Treinar e avaliar melho modelo na totalidade dos dados" style="rounded=1;whiteSpace=wrap;html=1;absoluteArcSize=1;arcSize=14;strokeWidth=2;" vertex="1" parent="1">
          <mxGeometry x="972.5" y="494" width="100" height="100" as="geometry" />
        </mxCell>
      </root>
    </mxGraphModel>
  </diagram>
</mxfile>
